<svg id="visual" viewBox="0 0 900 600" width="900" height="600" xmlns="http://www.w3.org/2000/svg" xmlns:xlink="http://www.w3.org/1999/xlink" version="1.1"><rect x="0" y="0" width="900" height="600" fill="#83d3b0"></rect><defs><linearGradient id="grad1_0" x1="33.3%" y1="0%" x2="100%" y2="100%"><stop offset="20%" stop-color="#4492bd" stop-opacity="1"></stop><stop offset="80%" stop-color="#4492bd" stop-opacity="1"></stop></linearGradient></defs><defs><linearGradient id="grad1_1" x1="33.3%" y1="0%" x2="100%" y2="100%"><stop offset="20%" stop-color="#4492bd" stop-opacity="1"></stop><stop offset="80%" stop-color="#38a1c1" stop-opacity="1"></stop></linearGradient></defs><defs><linearGradient id="grad1_2" x1="33.3%" y1="0%" x2="100%" y2="100%"><stop offset="20%" stop-color="#39afc1" stop-opacity="1"></stop><stop offset="80%" stop-color="#38a1c1" stop-opacity="1"></stop></linearGradient></defs><defs><linearGradient id="grad1_3" x1="33.3%" y1="0%" x2="100%" y2="100%"><stop offset="20%" stop-color="#39afc1" stop-opacity="1"></stop><stop offset="80%" stop-color="#4bbcbd" stop-opacity="1"></stop></linearGradient></defs><defs><linearGradient id="grad1_4" x1="33.3%" y1="0%" x2="100%" y2="100%"><stop offset="20%" stop-color="#65c8b7" stop-opacity="1"></stop><stop offset="80%" stop-color="#4bbcbd" stop-opacity="1"></stop></linearGradient></defs><defs><linearGradient id="grad1_5" x1="33.3%" y1="0%" x2="100%" y2="100%"><stop offset="20%" stop-color="#65c8b7" stop-opacity="1"></stop><stop offset="80%" stop-color="#83d3b0" stop-opacity="1"></stop></linearGradient></defs><defs><linearGradient id="grad2_0" x1="0%" y1="0%" x2="66.7%" y2="100%"><stop offset="20%" stop-color="#4492bd" stop-opacity="1"></stop><stop offset="80%" stop-color="#4492bd" stop-opacity="1"></stop></linearGradient></defs><defs><linearGradient id="grad2_1" x1="0%" y1="0%" x2="66.7%" y2="100%"><stop offset="20%" stop-color="#38a1c1" stop-opacity="1"></stop><stop offset="80%" stop-color="#4492bd" stop-opacity="1"></stop></linearGradient></defs><defs><linearGradient id="grad2_2" x1="0%" y1="0%" x2="66.7%" y2="100%"><stop offset="20%" stop-color="#38a1c1" stop-opacity="1"></stop><stop offset="80%" stop-color="#39afc1" stop-opacity="1"></stop></linearGradient></defs><defs><linearGradient id="grad2_3" x1="0%" y1="0%" x2="66.7%" y2="100%"><stop offset="20%" stop-color="#4bbcbd" stop-opacity="1"></stop><stop offset="80%" stop-color="#39afc1" stop-opacity="1"></stop></linearGradient></defs><defs><linearGradient id="grad2_4" x1="0%" y1="0%" x2="66.7%" y2="100%"><stop offset="20%" stop-color="#4bbcbd" stop-opacity="1"></stop><stop offset="80%" stop-color="#65c8b7" stop-opacity="1"></stop></linearGradient></defs><defs><linearGradient id="grad2_5" x1="0%" y1="0%" x2="66.7%" y2="100%"><stop offset="20%" stop-color="#83d3b0" stop-opacity="1"></stop><stop offset="80%" stop-color="#65c8b7" stop-opacity="1"></stop></linearGradient></defs><g transform="translate(900, 0)"><path d="M0 540.8C-55 502.8 -110.1 464.8 -185.2 447.2C-260.4 429.5 -355.6 432.1 -382.4 382.4C-409.2 332.8 -367.5 230.9 -382.5 158.4C-397.5 86 -469.2 43 -540.8 0L0 0Z" fill="#74ceb4"></path><path d="M0 450.7C-45.9 419 -91.7 387.4 -154.3 372.6C-217 357.9 -296.4 360.1 -318.7 318.7C-341 277.3 -306.3 192.4 -318.7 132C-331.2 71.7 -391 35.8 -450.7 0L0 0Z" fill="#57c2ba"></path><path d="M0 360.6C-36.7 335.2 -73.4 309.9 -123.5 298.1C-173.6 286.3 -237.1 288 -255 255C-272.8 221.9 -245 153.9 -255 105.6C-265 57.3 -312.8 28.7 -360.6 0L0 0Z" fill="#40b6c0"></path><path d="M0 270.4C-27.5 251.4 -55 232.4 -92.6 223.6C-130.2 214.7 -177.8 216 -191.2 191.2C-204.6 166.4 -183.8 115.4 -191.2 79.2C-198.7 43 -234.6 21.5 -270.4 0L0 0Z" fill="#36a8c2"></path><path d="M0 180.3C-18.3 167.6 -36.7 154.9 -61.7 149.1C-86.8 143.2 -118.5 144 -127.5 127.5C-136.4 110.9 -122.5 77 -127.5 52.8C-132.5 28.7 -156.4 14.3 -180.3 0L0 0Z" fill="#3d9ac0"></path><path d="M0 90.1C-9.2 83.8 -18.3 77.5 -30.9 74.5C-43.4 71.6 -59.3 72 -63.7 63.7C-68.2 55.5 -61.3 38.5 -63.7 26.4C-66.2 14.3 -78.2 7.2 -90.1 0L0 0Z" fill="#4492bd"></path></g><g transform="translate(0, 600)"><path d="M0 -540.8C36.6 -456.2 73.2 -371.7 148.9 -359.4C224.6 -347.1 339.4 -407.2 382.4 -382.4C425.5 -357.7 396.7 -248.2 411.1 -170.3C425.6 -92.4 483.2 -46.2 540.8 0L0 0Z" fill="#74ceb4"></path><path d="M0 -450.7C30.5 -380.2 61 -309.7 124.1 -299.5C187.1 -289.3 282.8 -339.3 318.7 -318.7C354.5 -298.1 330.6 -206.8 342.6 -141.9C354.6 -77 402.7 -38.5 450.7 0L0 0Z" fill="#57c2ba"></path><path d="M0 -360.6C24.4 -304.2 48.8 -247.8 99.2 -239.6C149.7 -231.4 226.3 -271.4 255 -255C283.6 -238.5 264.5 -165.4 274.1 -113.5C283.7 -61.6 322.1 -30.8 360.6 0L0 0Z" fill="#40b6c0"></path><path d="M0 -270.4C18.3 -228.1 36.6 -185.8 74.4 -179.7C112.3 -173.6 169.7 -203.6 191.2 -191.2C212.7 -178.8 198.3 -124.1 205.6 -85.1C212.8 -46.2 241.6 -23.1 270.4 0L0 0Z" fill="#36a8c2"></path><path d="M0 -180.3C12.2 -152.1 24.4 -123.9 49.6 -119.8C74.9 -115.7 113.1 -135.7 127.5 -127.5C141.8 -119.2 132.2 -82.7 137 -56.8C141.9 -30.8 161.1 -15.4 180.3 0L0 0Z" fill="#3d9ac0"></path><path d="M0 -90.1C6.1 -76 12.2 -61.9 24.8 -59.9C37.4 -57.9 56.6 -67.9 63.7 -63.7C70.9 -59.6 66.1 -41.4 68.5 -28.4C70.9 -15.4 80.5 -7.7 90.1 0L0 0Z" fill="#4492bd"></path></g></svg>